<svg width="24" height="24" viewBox="0 0 24 24" fill="none" xmlns="http://www.w3.org/2000/svg">
  <!-- Simplified hawk head -->
  <path d="M12 3C8 3 5 6 5 9C5 12 8 15 12 15C16 15 19 12 19 9C19 6 16 3 12 3Z" fill="white" />
  
  <!-- Hawk beak -->
  <path d="M12 10L10 14H14L12 10Z" fill="#FF9800" />
  
  <!-- Eyes -->
  <circle cx="10" cy="8" r="1" fill="#1E40AF" />
  <circle cx="14" cy="8" r="1" fill="#1E40AF" />
  
  <!-- Hawk's sharp gaze lines -->
  <path d="M9.5 7.5L10.5 8.5" stroke="#1E40AF" stroke-width="0.5" />
  <path d="M14.5 7.5L13.5 8.5" stroke="#1E40AF" stroke-width="0.5" />
  
  <!-- Simple wing suggestion -->
  <path d="M7 13C7 13 4 15 6 19" stroke="white" stroke-width="1" />
  <path d="M17 13C17 13 20 15 18 19" stroke="white" stroke-width="1" />
</svg> 