<?xml version="1.0" encoding="utf-8"?>
<!-- Generator: Adobe Illustrator 19.0.0, SVG Export Plug-In . SVG Version: 6.00 Build 0)  -->
<svg version="1.1" id="layer" xmlns="http://www.w3.org/2000/svg" xmlns:xlink="http://www.w3.org/1999/xlink" x="0px" y="0px"
	 viewBox="-153 -46 652 652" style="enable-background:new -153 -46 652 652;" xml:space="preserve">
<style type="text/css">
	.st0{fill:#FFCD00;}
</style>
<path class="st0" d="M-30.9,336.4c-28.5,13.6-80.3-23.6-93.9-52.5s3.3-57.1,31.9-70.4c9.3-4.3,19.3-6.6,29.5-7
	c18.9,0,36.5,9,45.5,27.9C-4.7,263.4-2.4,323.2-30.9,336.4z"/>
<path d="M45.7,283.3v24.9H31.8v-24.9l-18.9-34.5h16.3l11.3,22.6l11.3-22.6h12.6L45.7,283.3z M69,288.3v2.3c-0.3,5.3,3,9.6,8.6,9.6
	c4,0,8-3,8-7l12,1c0,2.3-5,15.3-20.2,15.3c-13.3,0-21.9-9.3-21.9-22.2c0-12.9,7.6-23.6,21.6-23.6c6.3,0,12.6,2.7,16.3,8
	c3.7,5.3,4.6,11.3,4.6,17.3C97.9,289,69,288.3,69,288.3z M77.3,271.7c-5.6,0-8,4.3-8.3,9.3h15.6C84.3,276,82.6,271.7,77.3,271.7
	 M103.2,248.8h12.6v59.8h-12.6V248.8z M123.4,248.8h12.9v59.8h-12.9V248.8z M162.3,309.2c-13.6,0-20.9-10.3-20.9-22.9
	c0-12.9,7.6-22.9,20.9-22.9c13.9,0,21.2,10.3,21.2,23.2C183.5,299.3,175.2,309.2,162.3,309.2 M168.2,275.7c-1-3-3-4-6-4
	c-7,0-7.3,8-7.3,13.3c0,5,0,15.9,7.3,15.9s7.6-8.6,7.6-13.9C169.6,283.3,169.6,279,168.2,275.7 M232.6,308.2h-11.3l-7-28.2l-7,28.2
	h-11l-13.6-44.2h13.6l7,27.2h0.3l6.6-27.2H222l6.3,27.2h0.3l7.3-27.2h10.3L232.6,308.2z M331.9,308.2c-0.7-2.7-0.7-5.6-0.7-8.6
	v-17.3c0-4.6,0-10.3-3.7-13.9c-3.3-3.7-8.6-4-12.9-4c-4,0-16.6,0.7-18.3,11l5,1c1.3-5,5.6-7.6,12.6-7.6c8.3,0,12,3.3,12,11.3v2.7
	h-6.3c-5.3,0-11.6,0.3-16.6,2.7c-4.6,2.3-7.6,6.6-7.6,11.6c0,8.6,7.3,12.6,14.6,12.6c7,0,12-3,14.9-8.6l1-2l0.3,2.3l0.7,7.6
	L331.9,308.2L331.9,308.2z M325.9,289.3c0,4.3-5.6,15.6-14.6,15.6c-4.6,0-10.3-2.3-10.3-8.3C301,286,315,286,319.6,286h6.3V289.3z
	 M371.1,303.6c-3-1-7.6-1.3-11.3-1.3h-4.3c-2.7,0-5.3,0-7.6-0.7s-4-2-4-4.3c0-2.7,3-4.6,5.3-4.6c1,0,2,0,3,0.3c1,0.3,2,0.3,3.3,0.3
	c4.3,0,8-1,11-3.3c3.3-2.7,5.3-6.3,5.3-10.6c0-4-1.7-7.6-4-10.3l-0.3-0.3v-0.3c0.7-5.3,4.3-5.6,8.6-5.6v-4.3h-2
	c-5.3,0-7.3,2-8.3,7.3v1l-0.7-0.3c-2.7-1.3-5.6-2-8.6-2c-8,0-16.3,5-16.3,14.3c0,4.3,2,8.6,5.6,11l1,0.7l-1,0.3
	c-3.7,1.7-5.6,3.3-5.6,7.3c0,2.7,1.3,4.6,4,6.3l1,0.7l-1.3,0.3c-4,1.3-6.3,4.3-6.3,8.3c0,5,4,7.6,7.3,9.3c3.7,1.3,8.6,1.7,12.6,1.7
	c13.9,0,21.2-4,21.2-12C377.4,308.9,374.7,305.2,371.1,303.6 M344.8,278.7c0-6,4.3-10.3,10.6-10.3c5.6,0,10.3,4.3,10.6,10v0.3
	c0,6.3-4.3,10.6-10.6,10.6C348.8,289,344.8,285,344.8,278.7 M368.1,318.8c-3,1.3-8,2-11.6,2c-7,0-14.6-2-14.6-7.6
	c0-3.7,2.7-5.3,5.3-6.6h0.7c3.3,0.3,7.6,0.7,11,0.7h4c3.3,0.3,10,0.7,10,6C372.1,316.5,370.1,317.8,368.1,318.8 M409.6,296.3
	c-2.3,5.3-6.6,8.3-12.3,8.3c-5,0-9.6-3-12-7c-1.7-3.7-2-7-2-10.3v-0.7h32.2c0-7.3-2-13.6-6-17.3c-3.3-3.3-7.6-5-12.6-5
	c-13.6,0-19.9,11.6-19.9,22.6c0,11,6,22.2,19.6,22.2c8.3,0,15.3-4.6,17.9-12L409.6,296.3L409.6,296.3z M383.7,282.3
	c0.3-7,5.3-14.3,13.3-14.3c3.3,0,6.3,1,8.6,3.3c2.7,2.7,4,6.3,4,10.6v1h-25.9V282.3z M450.4,286.6c-2.7-1.7-5.6-2.3-9-3l-6.6-1.3
	c-3.3-0.7-8.6-1.7-8.6-7c0-5,5-7,10-7c5.6,0,10,2.3,11.6,7l5-1c-2.7-8.6-11.6-10-16.6-10c-7.3,0-15.9,3.3-15.9,12.3
	c0,6.3,4.3,10.3,12.3,11.6l7.3,1.3c2.7,0.3,9.3,1.7,9.3,7.3c0,6-6,8-11.3,8c-6,0-12.6-2.7-13.9-8.3l-5.3,1c2,7.3,9,11.3,18.6,11.3
	c8.3,0,17.6-3.3,17.6-12.9C455.7,292.3,453.7,288.6,450.4,286.6 M288.1,253.8c-4-3.3-9.3-4-13.9-4h-19.3v58.4h6.3V284h13.9
	c6.3,0,10.6-1.3,13.9-4.6c3.3-3.3,5-7.6,5-12.3C293.7,261.7,291.4,256.8,288.1,253.8 M284.1,275.7c-3,3-6.6,3.3-10,3.3h-13.3v-24.2
	h13.9c3,0,5.6,0.3,8.6,2.3c2.7,2.3,4.3,6,4.3,10C287.4,270.4,286.4,273.4,284.1,275.7 M-96,236.5h18.3c6.3,0,16.6,1,22.2,12.3
	l27.6,57.4c-2.7,2.7-7.3,2.7-10,0c-0.3-0.3-0.7-0.7-0.7-1l-23.6-33.5c-3.3-4.6-10-6-14.6-2.7l-1,1l-6.6,6.3c-3,2.7-7.3,2.7-10.3-0.3
	l-0.7-0.7l6.3-8.3c4.3-6,4.6-13.9,0.7-19.9L-96,236.5z M-85.4,296.6c-1,1.7-1.3,3.7-1,5.3c0.3,3.7,5,7,5,7l17.3-29.2
	c0.7-1.3,0.7-3.3,0-4.6c-3.7-6-9-4-9-4S-85.4,296.6-85.4,296.6z M459,264.1h-1.3v-6.3h-2.3v-1h5.6v1h-2.3L459,264.1L459,264.1z
	 M469.7,264.1h-1v-6l-2.3,6h-0.7l-2.3-6v6h-1v-7.3h1.7l2.3,5.6l2.3-5.6h1.7v7.3H469.7z"/>
</svg>
