<svg width="60" height="60" viewBox="0 0 60 60" fill="none" xmlns="http://www.w3.org/2000/svg">
  <!-- Main hawk head shape -->
  <path d="M30 5C22 5 15 12 15 20C15 28 22 35 30 35C38 35 45 28 45 20C45 12 38 5 30 5Z" fill="#2563EB" />
  
  <!-- Hawk beak -->
  <path d="M30 25L25 35H35L30 25Z" fill="#FF9800" />
  
  <!-- Eyes -->
  <circle cx="25" cy="18" r="2" fill="white" />
  <circle cx="35" cy="18" r="2" fill="white" />
  
  <!-- Wings/feathers -->
  <path d="M10 30C10 30 5 35 8 45C8 45 15 35 10 30Z" fill="#2563EB" />
  <path d="M50 30C50 30 55 35 52 45C52 45 45 35 50 30Z" fill="#2563EB" />
  
  <!-- Abstract feather patterns -->
  <path d="M15 40C15 40 25 50 30 50C35 50 45 40 45 40" stroke="#2563EB" stroke-width="2" />
  <path d="M20 45C20 45 25 55 30 55C35 55 40 45 40 45" stroke="#2563EB" stroke-width="2" />
  
  <!-- Hawk's intense look -->
  <path d="M24 17L26 19" stroke="black" stroke-width="1" />
  <path d="M36 17L34 19" stroke="black" stroke-width="1" />
</svg> 