<svg width="256" height="46" viewBox="0 0 256 46" fill="none" xmlns="http://www.w3.org/2000/svg">
<g clip-path="url(#clip0_30_11046)">
<path d="M136.369 10.7996H130.28V35.4869H136.369V10.7996Z" fill="white"/>
<path d="M190.608 11.3114C189.722 10.9788 188.771 10.8091 187.78 10.8091H174.257C173.266 10.8091 172.315 10.9788 171.423 11.3148C170.496 11.678 169.698 12.2008 169.057 12.8593C168.402 13.5144 167.889 14.3087 167.533 15.2218C167.197 16.0636 167.027 17.0106 167.027 18.0391V27.6486C167.027 29.9568 167.621 32.1835 169.41 33.7585C170.747 34.9363 172.488 35.4862 174.257 35.4862H193.954L192.719 32.0375C192.308 30.8902 191.212 30.1197 189.993 30.1197H173.609C172.987 30.1197 172.485 29.6139 172.485 28.9962V25.8767H187.78C189.942 25.8767 191.996 25.0044 193.276 23.5448C194.189 22.5027 194.776 21.0873 194.98 19.4546C195.187 17.7743 194.959 16.1586 194.318 14.7771C193.578 13.1885 192.264 11.9564 190.611 11.3081L190.608 11.3114ZM189.569 17.8524V19.312C189.569 20.2455 188.809 21.0058 187.875 21.0058H172.482V17.2856C172.482 16.6644 172.987 16.162 173.605 16.162H187.875C188.809 16.162 189.569 16.9224 189.569 17.8558V17.8524Z" fill="white"/>
<path d="M59.8359 11.3114C58.9499 10.9788 57.9995 10.8091 57.0083 10.8091H43.4852C42.494 10.8091 41.5436 10.9788 40.6508 11.3148C39.7242 11.678 38.9265 12.2008 38.285 12.8593C37.6299 13.5144 37.1173 14.3087 36.7609 15.2218C36.4248 16.0636 36.2551 17.0106 36.2551 18.0391V27.6486C36.2551 29.9568 36.8491 32.1835 38.638 33.7585C39.9754 34.9363 41.7167 35.4862 43.4852 35.4862H63.1827L61.9472 32.0375C61.5364 30.8902 60.4401 30.1197 59.2215 30.1197H42.8368C42.2157 30.1197 41.7133 29.6139 41.7133 28.9962V25.8767H57.0083C59.1706 25.8767 61.2242 25.0044 62.5038 23.5448C63.4169 22.5027 64.0042 21.0873 64.2078 19.4546C64.4149 17.7743 64.1875 16.1586 63.5459 14.7771C62.8059 13.1885 61.4923 11.9564 59.8393 11.3081L59.8359 11.3114ZM58.8006 17.8524V19.312C58.8006 20.2455 58.0402 21.0058 57.1068 21.0058H41.7133V17.2856C41.7133 16.6644 42.219 16.162 42.8368 16.162H57.1068C58.0402 16.162 58.8006 16.9224 58.8006 17.8558V17.8524Z" fill="white"/>
<path d="M92.4151 13.1073C90.9657 11.6443 88.9698 10.8059 86.9434 10.8059H67.5173L67.5479 35.4864H72.8329V25.8735H85.8504C87.5883 25.8735 89.0037 27.289 89.0037 29.0269V35.4864H94.3397V29.5191C94.3397 26.7934 93.7219 24.9062 92.5067 23.9014C93.7083 22.598 94.5434 20.3271 94.5603 18.2667C94.5773 16.3489 93.8136 14.516 92.4117 13.1039L92.4151 13.1073ZM72.8363 17.2824C72.8363 16.9803 72.9517 16.6985 73.1656 16.4881C73.3794 16.2743 73.6612 16.1588 73.9599 16.1588L87.3269 16.1656C88.3079 16.1656 89.1022 16.9633 89.1022 17.9443V19.3292C89.1022 19.7806 88.9257 20.2083 88.6066 20.5274C88.2875 20.8465 87.8632 21.023 87.4118 21.023L74.3808 21.0128C73.617 21.0128 72.9619 21.5729 72.8397 22.3264V17.2858L72.8363 17.2824Z" fill="white"/>
<path d="M111.794 30.117L110.762 30.1204L102.127 10.7996H95.5857L107.055 35.4869H115.5L126.97 10.7996H120.429L111.794 30.117Z" fill="white"/>
<path d="M248.197 10.8059H228.554L228.584 35.2658V35.4864H233.869V25.8735H248.604C252.46 25.8735 255.597 22.7371 255.597 18.8811V18.209C255.597 14.1256 252.277 10.8059 248.194 10.8059H248.197ZM233.873 17.2858C233.873 16.9871 233.991 16.7019 234.202 16.4915C234.412 16.2776 234.698 16.1622 234.996 16.1622L248.367 16.169C249.348 16.169 250.142 16.9667 250.145 17.9443V19.3258C250.145 19.7772 249.972 20.2049 249.653 20.524C249.334 20.8431 248.906 21.0196 248.455 21.0196L235.41 21.0094C234.653 21.0094 234.005 21.5593 233.876 22.2993V17.2824L233.873 17.2858Z" fill="white"/>
<path d="M218.496 30.1165H205.095C204.297 30.1165 203.652 29.4716 203.652 28.6739V10.8059H198.299V27.6692C198.299 28.6841 198.483 30.2217 198.822 31.0635C199.151 31.9529 199.664 32.7506 200.346 33.4328C200.994 34.0981 201.792 34.6209 202.719 34.9841C203.605 35.3201 204.559 35.4898 205.546 35.4898H218.075C219.053 35.4898 220 35.3201 220.889 34.9841C221.812 34.6243 222.61 34.1015 223.251 33.443C223.917 32.7981 224.436 32.0004 224.803 31.0669C225.132 30.198 225.308 28.6671 225.308 27.6692V10.8059H219.942V28.6739C219.942 29.4716 219.297 30.1165 218.499 30.1165H218.496Z" fill="white"/>
<path d="M146.525 16.162H161.345C162.563 16.162 163.66 15.3915 164.071 14.2442L165.31 10.8091H146.858C145.86 10.8091 144.913 10.9856 144.051 11.3318C143.161 11.6611 142.364 12.1736 141.681 12.8559C141.016 13.5042 140.493 14.3019 140.13 15.2286C139.794 16.1145 139.624 17.0649 139.624 18.0561V27.669C139.624 28.6669 139.801 30.2012 140.13 31.0701C140.493 31.9968 141.013 32.7911 141.671 33.4326C142.316 34.0979 143.114 34.6206 144.047 34.9838C144.933 35.3165 145.88 35.4862 146.854 35.4862H165.306L164.071 32.0375C163.66 30.8902 162.563 30.1197 161.345 30.1197H146.525C145.731 30.1197 145.082 29.4714 145.082 28.6771V17.6046C145.082 16.8103 145.731 16.162 146.525 16.162Z" fill="white"/>
<path d="M28.0508 19.5983C27.1547 19.2588 26.1737 19.0755 25.1385 19.0586C24.0523 19.0348 22.9593 19.2079 21.9342 19.5507C20.7495 19.9547 19.6328 20.715 18.7027 21.7503C18.068 22.4597 17.8847 22.6159 17.8372 22.6498C17.5113 22.8772 17.0259 22.9078 16.6389 22.9078H10.8278C9.53451 22.9078 8.48905 21.8589 8.48905 20.569V18.5222C8.48905 17.229 9.53791 16.1835 10.8278 16.1835H29.6496C30.8037 16.1835 31.8288 15.4435 32.192 14.3472L33.3495 10.8238H10.5562C10.3458 10.8238 10.1421 10.8374 9.93845 10.8577C5.70905 11.1972 2.39274 14.7884 2.39274 19.0348C2.39274 20.4265 2.74576 21.7978 3.41785 23.0096C4.06957 24.1875 5.0132 25.1956 6.14353 25.9288C7.41642 26.7536 8.9405 27.2051 10.546 27.239C13.2751 27.2967 15.8752 26.129 17.5215 24.123C17.6199 24.0008 17.7693 23.8107 17.8949 23.6477C18.0069 23.5052 18.1766 23.4203 18.3599 23.4203H21.2519C21.812 23.4339 22.3585 23.624 22.8065 23.9634C22.9898 24.0992 24.816 25.6301 25.3082 26.0408C25.3896 26.1087 25.4813 26.1562 25.5865 26.18C26.2552 26.3327 28.8417 26.869 29.1608 27.0285C29.3882 27.144 29.5444 27.3646 29.5749 27.6226C29.6021 27.85 29.6326 28.7393 29.6224 28.8445L29.6089 28.8988L29.6598 29.1602C29.6903 29.3401 29.6496 29.5641 29.6224 29.6728C29.6123 29.7135 29.5919 29.7508 29.5579 29.7746C29.1947 30.0292 28.1527 30.0903 27.9388 30.1344C27.7555 30.7793 27.1717 31.2545 26.4691 31.2545C25.7664 31.2545 25.186 30.7759 25.0027 30.1344L3.69619 30.1412C2.5421 30.1412 1.517 30.8812 1.1538 31.9776L-0.00708008 35.4941H25.1249C25.8547 35.4941 26.5641 35.3991 27.2226 35.2124C30.824 34.262 33.3427 31.0034 33.3427 27.2831C33.3427 25.6131 32.8131 23.9431 31.8593 22.5819C30.9225 21.2411 29.5681 20.1855 28.0441 19.6084L28.0508 19.5983Z" fill="white"/>
</g>
<defs>
<clipPath id="clip0_30_11046">
<rect width="255.6" height="24.6873" fill="white" transform="translate(0 10.7997)"/>
</clipPath>
</defs>
</svg>
